HIERARCHY
ROOT Hips
{
	OFFSET 0.000000 88.474243 0.000000
	CHANNELS 6 Xposition Yposition Zposition Zrotation Yrotation Xrotation 
	JOINT Hips_Spine
	{
		OFFSET 0.000000 0.000000 0.000000
		CHANNELS 3 Zrotation Yrotation Xrotation
		JOINT Spine
		{
			OFFSET 0.005100 8.711998 -0.691000
			CHANNELS 3 Zrotation Yrotation Xrotation
			JOINT Spine1
			{
				OFFSET -0.009200 8.660301 -1.275000
				CHANNELS 3 Zrotation Yrotation Xrotation
				JOINT Spine2
				{
					OFFSET 0.006300 9.852501 -1.857000
					CHANNELS 3 Zrotation Yrotation Xrotation
					JOINT Spine2_Neck
					{
						OFFSET 0.000000 0.000000 0.000000
						CHANNELS 3 Zrotation Yrotation Xrotation
						JOINT Neck
						{
							OFFSET 0.016300 11.420799 -0.263300
							CHANNELS 3 Zrotation Yrotation Xrotation
							End Site #name: Head
							{
								OFFSET -0.019200 9.262405 2.362500
							}
						}
					}
					JOINT Spine2_LeftShoulder
					{
						OFFSET 0.000000 0.000000 0.000000
						CHANNELS 3 Zrotation Yrotation Xrotation
						JOINT LeftShoulder
						{
							OFFSET 5.616900 6.732201 -0.345700
							CHANNELS 3 Zrotation Yrotation Xrotation
							JOINT LeftArm
							{
								OFFSET 10.664888 -0.183372 -2.440700
								CHANNELS 3 Zrotation Yrotation Xrotation
								JOINT LeftForeArm
								{
									OFFSET 27.459126 0.000000 0.000000
									CHANNELS 3 Zrotation Yrotation Xrotation
									End Site #name: LeftHand
									{
										OFFSET 21.306858 0.000000 0.000000
									}
								}
							}
						}
					}
					JOINT Spine2_RightShoulder
					{
						OFFSET 0.000000 0.000000 0.000000
						CHANNELS 3 Zrotation Yrotation Xrotation
						JOINT RightShoulder
						{
							OFFSET -5.580300 6.737503 -0.344400
							CHANNELS 3 Zrotation Yrotation Xrotation
							JOINT RightArm
							{
								OFFSET -10.679335 -0.188484 -2.383900
								CHANNELS 3 Zrotation Yrotation Xrotation
								JOINT RightForeArm
								{
									OFFSET -27.503529 0.000000 0.000000
									CHANNELS 3 Zrotation Yrotation Xrotation
									End Site #name: RightHand
									{
										OFFSET -21.306808 0.000000 0.000000
									}
								}
							}
						}
					}
				}
			}
		}
	}
	JOINT Hips_LeftUpLeg
	{
		OFFSET 0.000000 0.000000 0.000000
		CHANNELS 3 Zrotation Yrotation Xrotation
		JOINT LeftUpLeg
		{
			OFFSET 6.857700 -6.739601 0.312100
			CHANNELS 3 Zrotation Yrotation Xrotation
			JOINT LeftLeg
			{
				OFFSET -0.367590 -34.731552 -4.572400
				CHANNELS 3 Zrotation Yrotation Xrotation
				End Site #name: LeftFoot
				{
					OFFSET 0.367590 -34.656704 -6.067400
				}
			}
		}
	}
	JOINT Hips_RightUpLeg
	{
		OFFSET 0.000000 0.000000 0.000000
		CHANNELS 3 Zrotation Yrotation Xrotation
		JOINT RightUpLeg
		{
			OFFSET -6.876100 -6.733299 0.301000
			CHANNELS 3 Zrotation Yrotation Xrotation
			JOINT RightLeg
			{
				OFFSET 0.347353 -34.795158 -4.515900
				CHANNELS 3 Zrotation Yrotation Xrotation
				End Site #name: RightFoot
				{
					OFFSET -0.347353 -34.589367 -6.070300
				}
			}
		}
	}
}
MOTION
Frames: 15
Frame Time: 0.041667
0.023358 -0.001712 -0.094146 -179.706368 55.144368 -176.683868 -0.000000 -0.000000 0.000000 -2.379191 1.237063 -2.117117 2.271365 -0.051429 0.497865 0.000000 0.000000 0.000000 1.763254 -0.753029 -2.459894 -1.771308 -6.372226 -0.822885 1.196444 0.213053 -1.068939 -4.634906 -6.275225 1.509222 -78.062351 -3.954454 7.448155 0.623017 -17.399601 2.751376 1.465155 -0.113259 -2.227068 17.008008 9.759832 4.531393 53.819608 13.618524 -1.761358 -4.664711 55.231618 2.014030 0.000000 -0.000000 -0.000000 -3.778836 17.427854 -17.666568 -6.453128 -27.254294 2.529083 -0.000000 -0.000000 -0.000000 -5.746356 -23.485162 -9.599309 -10.898267 -9.017815 15.345195 
0.039414 -0.177079 -0.109450 177.722092 65.236023 -177.701473 -0.000000 -0.000000 0.000000 -3.732776 1.304173 -0.484914 2.797621 -0.300360 -0.329815 0.000000 0.000000 0.000000 2.215290 -0.453172 -2.188478 -0.327017 -12.350442 -0.193072 1.737800 -0.015705 -1.748309 -2.525775 -8.070995 1.480879 -84.231859 -14.310619 0.286593 -1.195389 -12.042418 1.903856 2.628266 -0.674621 -0.231197 20.851857 9.941566 3.648561 51.636370 14.972712 -2.291500 -3.451510 40.870886 3.012967 -0.000000 -0.000000 -0.000000 -2.738093 18.543260 -17.695330 -4.979570 -24.207481 0.307377 0.000000 -0.000000 -0.000000 -5.720064 -25.029534 -9.751381 -8.050764 -4.807039 15.397850 
0.084456 -0.273538 -0.090690 176.297644 59.473377 -178.950700 -0.000000 -0.000000 0.000000 -4.696581 -0.313608 0.055316 3.188545 -0.385892 -0.623694 0.000000 0.000000 0.000000 2.775174 -0.668880 -2.111200 -1.526224 -19.505582 0.444686 1.920355 -0.011994 -2.013931 -1.020706 -7.509473 0.712516 -86.593148 -15.743864 -4.639693 -0.816443 -5.150318 2.125288 3.067143 -0.807718 -1.100575 20.769123 10.735698 3.950282 51.325333 19.122875 3.080189 -2.858796 39.007362 5.011639 -0.000000 -0.000000 -0.000000 -1.906870 19.512745 -16.622033 -4.298919 -24.663432 -0.206467 -0.000000 -0.000000 -0.000000 -6.226179 -28.227308 -8.248901 -8.163241 -5.059077 15.742854 
0.210909 -0.357976 -0.072164 177.767586 50.969265 -178.427793 -0.000000 -0.000000 0.000000 -4.231851 -1.483063 0.450555 2.950724 -0.814377 -0.957215 0.000000 0.000000 0.000000 2.729223 -1.044701 -1.832514 -2.654955 -23.540018 1.419031 1.850467 -0.317719 -2.240135 -0.117968 -6.156648 -0.431258 -88.549029 -16.812874 -4.902827 -0.630768 -2.164138 2.231461 2.859799 -1.413651 -0.964557 18.967753 9.858461 4.032306 52.091130 21.394343 5.511108 -2.277915 38.473345 5.421237 -0.000000 -0.000000 -0.000000 -1.341747 20.099539 -15.086500 -3.764502 -26.442573 -0.911460 -0.000000 -0.000000 -0.000000 -6.880978 -33.321887 -7.181998 -7.987591 -5.071735 15.933256 
0.364025 -0.402319 -0.080440 177.737325 43.019397 -178.708848 -0.000000 -0.000000 0.000000 -3.276822 -1.808060 0.481059 2.673816 -1.075353 -0.883129 0.000000 0.000000 0.000000 2.563387 -1.273045 -1.081564 -2.063511 -26.037838 1.954793 1.650929 -0.652974 -2.097916 0.656632 -4.832128 -1.757774 -89.330091 -17.129505 -4.277895 1.131977 -1.419060 4.546608 2.479826 -1.875750 -0.238169 16.850494 8.740712 3.861275 52.964615 22.267290 8.209552 -2.189520 38.379626 4.732132 -0.000000 0.000000 -0.000000 -1.184658 20.406411 -14.329923 -3.475171 -28.029930 -1.513859 -0.000000 -0.000000 -0.000000 -7.419101 -37.455125 -6.550249 -8.201784 -5.628198 16.221707 
0.509622 -0.429595 -0.118503 177.347145 37.817074 -178.817611 -0.000000 -0.000000 0.000000 -2.231382 -1.503607 0.696288 2.368583 -1.213222 -0.287442 0.000000 0.000000 0.000000 2.361881 -1.365992 0.032930 -1.280308 -27.400911 1.788318 1.399634 -0.837179 -1.634621 0.850658 -4.562255 -2.175007 -89.016158 -17.190136 -2.778616 3.304207 -2.856982 7.269838 2.113477 -2.073774 0.275389 15.469138 7.709194 3.971650 53.916630 21.849909 10.831814 -2.497434 39.819657 4.040640 -0.000000 0.000000 -0.000000 -1.304442 20.203104 -14.463010 -3.504249 -29.054702 -1.755426 -0.000000 -0.000000 -0.000000 -7.633174 -39.994154 -6.567356 -8.332547 -6.742700 16.398197 
0.646364 -0.441665 -0.174970 176.611377 36.117888 -178.825239 -0.000000 -0.000000 0.000000 -1.238589 -0.790944 1.388266 2.071899 -1.187924 0.556156 0.000000 0.000000 0.000000 2.105813 -1.374685 1.193683 -0.691426 -27.570939 1.263599 1.138049 -0.877497 -1.015664 0.611243 -4.295746 -2.252873 -88.103992 -17.452662 -0.919389 4.984114 -4.876863 9.415709 1.768336 -2.125456 0.567116 14.858751 7.177231 3.788340 54.696852 20.128293 11.436919 -2.565020 40.431055 4.082992 -0.000000 0.000000 -0.000000 -1.514280 19.676182 -14.984773 -3.506491 -29.793703 -2.152478 -0.000000 -0.000000 -0.000000 -7.671509 -42.148296 -7.007065 -8.665898 -8.317391 16.568554 
0.773393 -0.449025 -0.233114 175.866865 36.745070 -178.766659 -0.000000 -0.000000 0.000000 -0.472192 0.180611 2.010637 1.834085 -1.098425 1.230850 0.000000 0.000000 0.000000 1.864572 -1.349248 2.064630 -0.069862 -27.012045 0.928665 0.887792 -0.885878 -0.457481 0.278524 -4.093658 -2.156667 -86.785766 -17.886072 0.849738 6.112907 -6.257512 10.723312 1.360486 -2.116614 0.837004 14.478645 7.276555 3.623867 55.237556 18.698379 12.283490 -2.398813 40.081953 4.666476 -0.000000 0.000000 -0.000000 -1.689538 19.075895 -15.529181 -3.463408 -30.277945 -2.581758 -0.000000 -0.000000 -0.000000 -7.464479 -43.635300 -7.782417 -9.265770 -9.682579 16.936984 
0.897678 -0.458634 -0.279499 175.300372 37.369444 -178.742565 -0.000000 -0.000000 0.000000 0.093723 1.018644 2.313240 1.537871 -0.980948 1.669932 0.000000 0.000000 0.000000 1.621842 -1.287223 2.512278 0.469160 -26.461037 0.802454 0.681747 -0.870273 -0.099654 0.085295 -3.744156 -2.079140 -85.557066 -18.398052 2.003332 6.655803 -7.752855 11.147640 1.014497 -2.062756 0.956440 14.076599 7.165708 3.575254 55.654337 17.986486 13.203411 -2.027984 38.881857 5.557954 -0.000000 0.000000 -0.000000 -1.760466 18.512137 -15.770028 -3.399245 -30.710808 -2.969622 -0.000000 -0.000000 -0.000000 -7.129263 -44.237581 -8.543080 -9.849060 -10.701900 17.251896 
1.015626 -0.468685 -0.318502 175.008468 37.359172 -178.762124 -0.000000 -0.000000 0.000000 0.349586 1.512250 2.397911 1.323787 -0.898829 1.940835 0.000000 0.000000 0.000000 1.436113 -1.231800 2.731954 0.954761 -26.254374 0.911821 0.533451 -0.845900 0.073435 0.057184 -3.504407 -1.972940 -84.767757 -18.781046 2.568297 6.948527 -9.602644 10.960071 0.761187 -2.006067 1.006390 13.648542 6.619032 3.535977 56.160887 17.674470 14.054821 -1.651884 37.444489 6.425475 0.000000 0.000000 -0.000000 -1.726410 18.098569 -15.713322 -3.344608 -31.081358 -3.230699 -0.000000 -0.000000 -0.000000 -6.943543 -44.433526 -9.025896 -10.102125 -11.378859 17.544987 
1.127848 -0.480589 -0.353194 174.973257 36.779860 -178.767186 -0.000000 -0.000000 0.000000 0.367530 1.732143 2.527669 1.170871 -0.857238 2.093127 0.000000 0.000000 0.000000 1.259366 -1.197403 2.837702 1.355251 -26.297467 1.074077 0.425040 -0.838723 0.174436 0.151805 -3.438020 -1.832798 -84.358033 -19.008952 2.877302 7.216456 -11.480984 10.582419 0.580153 -1.983215 1.057815 13.366962 5.904657 3.561270 56.733314 17.487613 14.966129 -1.410177 36.587860 7.086833 0.000000 0.000000 -0.000000 -1.627704 17.861772 -15.453593 -3.310335 -31.423907 -3.391251 -0.000000 -0.000000 -0.000000 -6.897343 -44.332377 -9.235282 -10.209232 -11.896501 17.805162 
1.234175 -0.495483 -0.386513 175.063120 35.767331 -178.759738 -0.000000 -0.000000 0.000000 0.233370 1.771348 2.648824 1.053951 -0.869462 2.194144 0.000000 0.000000 0.000000 1.149264 -1.203594 2.927779 1.671040 -26.476147 1.175137 0.346590 -0.850331 0.257343 0.300942 -3.429115 -1.736663 -84.122932 -19.231850 3.178686 7.454610 -13.381428 10.090098 0.462873 -1.995832 1.110004 13.193518 5.274317 3.600049 57.335819 17.196337 14.891977 -1.346383 36.208118 7.441649 0.000000 0.000000 -0.000000 -1.517111 17.724022 -15.081220 -3.268096 -31.763454 -3.559539 -0.000000 -0.000000 -0.000000 -6.882599 -44.063510 -9.297684 -10.304626 -12.309494 17.983594 
1.333065 -0.513458 -0.420785 175.218408 34.578894 -178.731435 -0.000000 -0.000000 0.000000 0.131875 1.692805 2.787119 0.974742 -0.930215 2.292725 0.000000 0.000000 0.000000 1.108189 -1.235895 3.040141 1.917369 -26.701517 1.217691 0.302936 -0.881137 0.333283 0.440591 -3.473221 -1.662796 -83.999607 -19.481995 3.499135 7.778324 -15.189540 9.660554 0.403346 -2.036532 1.191541 13.106144 4.901858 3.691599 57.962229 16.853964 14.308252 -1.343788 36.517671 7.492141 0.000000 0.000000 -0.000000 -1.405926 17.678805 -14.672273 -3.220053 -32.109074 -3.746225 -0.000000 -0.000000 -0.000000 -6.863143 -43.895339 -9.277771 -10.421675 -12.613183 18.089180 
1.424641 -0.534300 -0.457181 175.385795 33.424985 -178.699827 -0.000000 -0.000000 0.000000 0.103697 1.559334 2.809872 0.949756 -1.009350 2.398564 0.000000 0.000000 0.000000 1.114646 -1.273061 3.148634 2.111905 -26.905049 1.235193 0.292421 -0.919485 0.414124 0.551599 -3.488264 -1.635870 -83.873122 -19.674315 3.792390 8.107084 -16.720616 9.293183 0.391906 -2.092714 1.292755 13.043737 4.772258 3.858340 58.250248 16.748927 14.098725 -1.374553 37.224531 7.360920 0.000000 0.000000 -0.000000 -1.301474 17.678644 -14.239662 -3.149628 -32.528601 -4.030502 -0.000000 -0.000000 -0.000000 -6.825814 -43.826230 -9.210172 -10.560218 -12.828305 18.111997 
1.508640 -0.557101 -0.496503 175.549126 32.345204 -178.664636 -0.000000 -0.000000 0.000000 0.188177 1.445264 2.761994 0.994639 -1.073129 2.487918 0.000000 0.000000 0.000000 1.174000 -1.306698 3.273453 2.285722 -27.111799 1.253488 0.317396 -0.948017 0.498428 0.676013 -3.502382 -1.656639 -83.745083 -19.740501 4.011948 8.375587 -17.952244 8.953868 0.425739 -2.140755 1.415481 12.994035 4.773115 4.032160 58.464191 16.749440 14.092343 -1.414623 38.121762 7.204351 0.000000 0.000000 -0.000000 -1.199580 17.691722 -13.786926 -3.048408 -33.025847 -4.417896 -0.000000 0.000000 -0.000000 -6.782095 -43.957855 -9.111987 -10.664504 -12.952123 18.071317 
